<svg xmlns="http://www.w3.org/2000/svg" version="1.1" xmlns:xlink="http://www.w3.org/1999/xlink" xmlns:svgjs="http://svgjs.dev/svgjs" width="1440" height="560" preserveAspectRatio="none" viewBox="0 0 1440 560"><g mask="url(&quot;#SvgjsMask1129&quot;)" fill="none"><rect width="1440" height="560" x="0" y="0" fill="rgba(120, 177, 175, 1)"></rect><path d="M0,444.453C84.736,440.489,164.491,412.65,238.117,370.517C314.886,326.585,400.983,280.117,431.95,197.265C462.532,115.443,406.481,29.714,397.989,-57.222C388.959,-149.672,449.866,-267.929,380.479,-329.687C308.121,-394.09,190.421,-305.541,95.782,-326.204C11.734,-344.554,-43.481,-442.345,-129.499,-441.033C-220.705,-439.642,-321.634,-397.508,-368.291,-319.126C-414.807,-240.981,-349.722,-142.146,-361.12,-51.921C-372.217,35.925,-454.532,111.989,-433.623,198.029C-412.235,286.042,-331.626,348.738,-252.88,393.489C-176.575,436.853,-87.67,448.555,0,444.453" fill="#65a6a4"></path><path d="M1440 1145.232C1566.701 1145.854 1711.392 1215.95 1812.365 1139.412 1914.223 1062.204 1867.798 895.876 1921.798 780.03 1976.4479999999999 662.789 2151.968 588.218 2128.599 460.994 2104.946 332.223 1921.392 313.828 1820.776 230.05599999999998 1740.7930000000001 163.46300000000002 1689.462 70.56099999999998 1598.632 19.75 1489.922-41.06299999999999 1369.382-122.56200000000001 1249.242-89.66399999999999 1129.1-56.76599999999996 1063.778 73.024 1004.326 182.486 953.5609999999999 275.953 943.631 381.43 935.764 487.502 928.399 586.808 939.884 681.665 960.072 779.1759999999999 985.81 903.492 969.038 1058.7730000000001 1069.979 1135.7640000000001 1170.109 1212.136 1314.071 1144.613 1440 1145.232" fill="#8bbcba"></path></g><defs><mask id="SvgjsMask1129"><rect width="1440" height="560" fill="#ffffff"></rect></mask></defs></svg>