<svg xmlns="http://www.w3.org/2000/svg" version="1.1" xmlns:xlink="http://www.w3.org/1999/xlink" xmlns:svgjs="http://svgjs.dev/svgjs" width="1438" height="552" preserveAspectRatio="none" viewBox="0 0 1438 552"><g mask="url(&quot;#SvgjsMask1151&quot;)" fill="none"><rect width="1438" height="552" x="0" y="0" fill="rgba(29, 82, 113, 1)"></rect><path d="M0,379.961C71.512,391.071,145.227,359.378,202.663,315.349C257.838,273.053,287.066,207.264,310.614,141.853C332.644,80.659,341.764,16.562,333.448,-47.943C325.042,-113.143,304.545,-176.941,262.951,-227.849C220.643,-279.631,164.813,-326.82,98.509,-335.49C34.649,-343.841,-19.355,-294.179,-80.073,-272.704C-136.701,-252.676,-199.289,-250.769,-246.398,-213.505C-299.076,-171.836,-348.991,-118.027,-359.485,-51.686C-370.017,14.893,-337.714,80.752,-301.988,137.913C-269.245,190.301,-214.074,219.458,-165.868,258.096C-111.227,301.891,-69.196,369.211,0,379.961" fill="#13354a"></path><path d="M1438 1074.246C1534.008 1067.608 1607.328 993.113 1684.756 935.96 1757.287 882.422 1825.509 826.905 1875.088 751.612 1931.526 665.903 1985.422 575.186 1989.8310000000001 472.659 1994.711 359.183 1973.4969999999998 238.24599999999998 1900.923 150.875 1827.8600000000001 62.916 1713.242 12.547000000000025 1599.334 2.5470000000000255 1494.359-6.668999999999983 1406.174 69.582 1304.854 98.54599999999999 1202.545 127.793 1084.4479999999999 107.22899999999998 1001.22 173.52800000000002 912.625 244.10199999999998 851.73 353.522 843.004 466.453 834.46 577.028 894.892 679.362 954.931 772.61 1008.6759999999999 856.082 1084.084 919.0889999999999 1168.2939999999999 971.671 1251.566 1023.668 1340.061 1081.018 1438 1074.246" fill="#276f99"></path></g><defs><mask id="SvgjsMask1151"><rect width="1438" height="552" fill="#ffffff"></rect></mask></defs></svg>