<svg xmlns="http://www.w3.org/2000/svg" version="1.1" xmlns:xlink="http://www.w3.org/1999/xlink" xmlns:svgjs="http://svgjs.dev/svgjs" width="1440" height="560" preserveAspectRatio="none" viewBox="0 0 1440 560"><g mask="url(&quot;#SvgjsMask1007&quot;)" fill="none"><rect width="1440" height="560" x="0" y="0" fill="rgba(27, 71, 117, 1)"></rect><path d="M1584.09 58.93C1410.86 60.79 1252.18 249.44 917.8 249.33 583.42 249.22 434.57-48.58 251.51-55.72" stroke="rgba(92, 229, 211, 1)" stroke-width="2"></path><path d="M1597.89 276.45C1477.07 278.38 1384.17 433.4 1138.81 427.65 893.46 421.9 843.2-26.35 679.74-71.02" stroke="rgba(92, 229, 211, 1)" stroke-width="2"></path><path d="M1479.48 209.45C1374.9 209.2 1273.26 139.45 1067.04 139.45 860.82 139.45 864.07 210.02 654.61 209.45 445.14 208.88 358.49-1.03 242.17-7.51" stroke="rgba(92, 229, 211, 1)" stroke-width="2"></path><path d="M1454.13 132.8C1281.99 135.67 1049.27 351.75 801 351.2 552.74 350.65 594.21 7.59 474.44-29.56" stroke="rgba(92, 229, 211, 1)" stroke-width="2"></path><path d="M1571.77 320.77C1389.14 323.11 1148.89 538.03 872.87 533.57 596.85 529.11 670.01 49.55 523.42-26.07" stroke="rgba(92, 229, 211, 1)" stroke-width="2"></path></g><defs><mask id="SvgjsMask1007"><rect width="1440" height="560" fill="#ffffff"></rect></mask></defs></svg>